<?xml version="1.0" encoding="utf-8"?>
<!-- Generator: Adobe Illustrator 25.0.0, SVG Export Plug-In . SVG Version: 6.00 Build 0)  -->
<svg version="1.1" id="Layer_1" xmlns="http://www.w3.org/2000/svg" xmlns:xlink="http://www.w3.org/1999/xlink" x="0px" y="0px"
	 viewBox="0 0 324 86.4" style="enable-background:new 0 0 324 86.4;" xml:space="preserve">
<style type="text/css">
	.st0{fill:#7B0AE8;}
	.st1{fill:#FFA300;}
	.st2{fill:none;stroke:#000000;stroke-width:11;stroke-miterlimit:10;}
</style>
<g>
	<path class="st0" d="M27.74,15.68c-1.52-1.5-3.68-2.37-6.19-2.37c-5.01,0-8.64,3.58-8.64,8.52s3.63,8.52,8.64,8.52
		c2.51,0,4.66-0.88,6.19-2.42l6.87,6.69C31.27,37.92,26.66,40,21.55,40C11.38,40,3.13,31.86,3.13,21.83S11.38,3.66,21.55,3.66
		c5.06,0,9.63,1.99,12.96,5.28L27.74,15.68z"/>
	<path class="st0" d="M58.87,3.66c10.17,0,18.42,8.19,18.42,18.22C77.29,31.91,69.04,40,58.87,40S40.5,31.91,40.5,21.88
		C40.51,11.84,48.71,3.66,58.87,3.66z M58.87,13.16c-4.81,0-8.74,3.87-8.74,8.67c0,4.75,3.93,8.67,8.74,8.67
		c4.86,0,8.79-3.92,8.79-8.67C67.66,17.03,63.73,13.16,58.87,13.16z"/>
	<path class="st0" d="M117.56,3.61L100.42,40H96L78.81,3.61h9.72l9.67,20.69l9.72-20.69L117.56,3.61L117.56,3.61z"/>
	<path class="st0" d="M121.73,3.66h9.67V40h-9.67V3.66z"/>
	<path class="st0" d="M138.82,3.66h13.65c10.17,0,18.42,8.14,18.42,18.17c0,10.03-8.25,18.17-18.42,18.17h-13.65V3.66z M148.45,30.5
		h4.08c4.81,0,8.74-3.87,8.74-8.62c0-4.7-3.93-8.57-8.74-8.57h-4.08V30.5z"/>
	<path class="st0" d="M199.62,3.66h9.67V40h-9.67V3.66z"/>
	<path class="st0" d="M243.77,40l-17.39-17.2V40h-9.67V3.66h3.93l17.44,17.15V3.66h9.67V40H243.77z"/>
	<path class="st0" d="M255.17,3.66h23.08v7.85h-13.41v5.91h11.83v8.09h-11.83V40h-9.67V3.66z"/>
	<path class="st0" d="M302.8,3.66c10.17,0,18.42,8.19,18.42,18.22c0,10.03-8.25,18.12-18.42,18.12s-18.37-8.09-18.37-18.12
		C284.44,11.84,292.64,3.66,302.8,3.66z M302.8,13.16c-4.81,0-8.74,3.87-8.74,8.67c0,4.75,3.93,8.67,8.74,8.67
		c4.86,0,8.79-3.92,8.79-8.67C311.59,17.03,307.66,13.16,302.8,13.16z"/>
</g>
<g>
	<path class="st1" d="M51.17,47.07h15.58c7.49,0,13.61,6.12,13.61,13.61c0,7.44-6.07,13.56-13.41,13.56h-6.07v9.82h-9.72
		L51.17,47.07L51.17,47.07z M60.89,65.86h6.02c2.96,0,5.33-2.31,5.33-5.28c0-2.96-2.36-5.33-5.33-5.33h-6.02V65.86z"/>
	<path class="st1" d="M81.16,84.06l17.26-36.98h4.39l17.41,36.98h-9.72l-2.27-4.83H93.1l-2.22,4.83H81.16z M96.89,71.04h7.54
		l-3.75-8.14L96.89,71.04z"/>
	<path class="st1" d="M160.9,47.07l-16.87,16.91l20.02,20.07h-13.71l-13.17-13.12l-2.31,2.36v10.75h-9.72V47.07h9.72v12.48
		l12.43-12.48H160.9z"/>
	<path class="st1" d="M182.7,47.07c10.21,0,18.5,8.33,18.5,18.55s-8.28,18.45-18.5,18.45c-10.21,0-18.45-8.24-18.45-18.45
		C164.25,55.4,172.48,47.07,182.7,47.07z M182.7,56.74c-4.83,0-8.78,3.94-8.78,8.83c0,4.83,3.94,8.83,8.78,8.83
		c4.88,0,8.83-3.99,8.83-8.83C191.52,60.68,187.58,56.74,182.7,56.74z"/>
	<path class="st1" d="M243.69,47.07l-16.87,16.91l20.02,20.07h-13.7l-13.17-13.12l-2.31,2.36v10.75h-9.72V47.07h9.72v12.48
		l12.43-12.48H243.69z"/>
	<path class="st1" d="M286.01,47.07l-16.87,16.91l20.02,20.07h-13.71l-13.17-13.12l-2.31,2.36v10.75h-9.72V47.07h9.72v12.48
		l12.43-12.48H286.01z"/>
	<path class="st1" d="M302.28,69.31c0,2.66,2.17,4.83,4.83,4.83c2.66,0,4.83-2.17,4.83-4.83V47.07h9.77v22.39
		c0,8.14-6.56,14.6-14.6,14.6c-8.14,0-14.6-6.46-14.6-14.6V47.07h9.77V69.31z"/>
</g>
<g>
	<path class="st2" d="M3.14,65.44"/>
</g>
<g>
	<path class="st2" d="M40.83,65.88"/>
</g>
<rect x="17.5" y="46.75" class="st1" width="9.86" height="37.49"/>
<rect x="3.22" y="60.57" class="st1" width="37.49" height="9.86"/>
</svg>
