<?xml version="1.0" encoding="utf-8"?>
<!-- Generator: Adobe Illustrator 25.0.0, SVG Export Plug-In . SVG Version: 6.00 Build 0)  -->
<svg version="1.1" id="Layer_1" xmlns="http://www.w3.org/2000/svg" xmlns:xlink="http://www.w3.org/1999/xlink" x="0px" y="0px"
	 viewBox="0 0 216 216" style="enable-background:new 0 0 216 216;" xml:space="preserve">
<style type="text/css">
	.st0{fill:#7B0AE8;}
	.st1{fill:#FFA300;}
	.st2{fill:none;stroke:#000000;stroke-width:11;stroke-miterlimit:10;}
</style>
<g>
	<g>
		<path class="st0" d="M75.47,42.4c-3.58-3.53-8.64-5.56-14.52-5.56c-11.76,0-20.29,8.41-20.29,20s8.53,20,20.29,20
			c5.88,0,10.95-2.05,14.52-5.68l16.13,15.7c-7.83,7.73-18.66,12.62-30.65,12.62c-23.86,0-43.22-19.11-43.22-42.64
			S37.09,14.2,60.95,14.2c11.87,0,22.59,4.67,30.42,12.39L75.47,42.4z"/>
		<path class="st0" d="M148.55,14.2c23.86,0,43.22,19.21,43.22,42.76c0,23.53-19.36,42.53-43.22,42.53s-43.11-18.99-43.11-42.53
			C105.45,33.41,124.69,14.2,148.55,14.2z M148.55,36.49c-11.29,0-20.52,9.09-20.52,20.35c0,11.14,9.22,20.35,20.52,20.35
			c11.41,0,20.63-9.21,20.63-20.35C169.17,45.58,159.96,36.49,148.55,36.49z"/>
	</g>
	<g>
		<path class="st1" d="M130.47,116.08h36.56c17.59,0,31.94,14.36,31.94,31.94c0,17.47-14.24,31.83-31.48,31.83h-14.24v23.03h-22.8
			v-86.81H130.47z M153.27,160.18h14.13c6.94,0,12.5-5.43,12.5-12.39c0-6.94-5.55-12.5-12.5-12.5h-14.13V160.18z"/>
	</g>
	<g>
		<path class="st2" d="M17.76,159.18"/>
	</g>
	<g>
		<path class="st2" d="M106.19,160.21"/>
	</g>
	<rect x="51.44" y="115.33" class="st1" width="23.13" height="87.98"/>
	<rect x="17.95" y="147.77" class="st1" width="87.98" height="23.13"/>
</g>
</svg>
